<?xml version="1.0" standalone="no"?>
<!DOCTYPE svg PUBLIC "-//W3C//DTD SVG 20010904//EN"
 "http://www.w3.org/TR/2001/REC-SVG-20010904/DTD/svg10.dtd">
<svg version="1.0" xmlns="http://www.w3.org/2000/svg"
 width="512.000000pt" height="512.000000pt" viewBox="0 0 512.000000 512.000000"
 preserveAspectRatio="xMidYMid meet">
<metadata>
Created by potrace 1.11, written by Peter Selinger 2001-2013
</metadata>
<g transform="translate(0.000000,512.000000) scale(0.100000,-0.100000)"
fill="#000000" stroke="none">
<path d="M1896 4038 c-3 -18 -17 -134 -31 -258 -14 -124 -34 -301 -45 -395
-11 -93 -25 -219 -31 -280 -6 -60 -13 -129 -15 -152 l-5 -43 -605 0 -604 0 0
-290 0 -290 570 0 570 0 0 -22 c-1 -13 -7 -77 -14 -143 -18 -159 -41 -370 -77
-710 -16 -154 -32 -297 -35 -317 l-6 -38 135 0 135 0 6 53 c8 70 43 365 66
562 11 88 22 187 24 220 3 33 13 135 22 228 l17 167 250 -2 249 -3 13 -40 c7
-22 27 -87 45 -145 18 -58 43 -136 56 -175 12 -38 36 -117 54 -175 17 -58 40
-130 50 -160 10 -30 39 -122 65 -205 25 -82 50 -161 55 -175 5 -14 16 -53 26
-87 l17 -63 173 0 174 0 0 45 c0 41 19 216 69 645 38 321 51 436 53 485 l3 50
618 3 617 2 0 290 0 290 -580 0 -580 0 0 38 c0 21 9 107 19 192 11 85 25 209
31 275 19 198 60 588 65 623 l6 32 -135 0 -134 0 -6 -47 c-3 -27 -15 -124 -26
-218 -11 -93 -27 -224 -35 -290 -8 -66 -17 -151 -20 -190 -10 -121 -36 -369
-41 -392 l-4 -23 -259 0 -259 0 -31 103 c-17 56 -51 165 -75 242 -24 77 -56
181 -71 230 -15 50 -44 144 -65 210 -21 66 -50 161 -65 210 -15 50 -32 106
-39 125 l-12 35 -171 3 -172 2 -5 -32z m224 -581 c0 -7 13 -52 29 -102 15 -49
43 -137 61 -195 18 -58 41 -129 51 -158 34 -95 37 -92 -102 -92 -110 0 -120 2
-115 18 2 9 10 73 16 142 31 347 39 412 51 404 5 -3 9 -11 9 -17z m930 -1144
c0 -48 -60 -616 -65 -622 -3 -2 -7 2 -9 10 -8 24 -43 141 -71 234 -15 50 -45
143 -66 209 -21 65 -41 134 -45 152 l-6 34 131 0 c118 0 131 -2 131 -17z"/>
</g>
</svg>
